<?xml version="1.0" encoding="utf-8"?>
<!-- Generator: Adobe Illustrator 24.3.0, SVG Export Plug-In . SVG Version: 6.00 Build 0)  -->
<svg version="1.1" id="Layer_1" xmlns="http://www.w3.org/2000/svg" xmlns:xlink="http://www.w3.org/1999/xlink" x="0px" y="0px"
	 viewBox="0 0 279 38.3" style="enable-background:new 0 0 279 38.3;" xml:space="preserve">
<path id="jdf5a" style="fill:#01D856;" d="M22,3.3L19,6.9c-1.7-1.4-3.8-2.2-6-2.2c-1.5-0.1-3,0.5-4.1,1.5C7,8,6.5,11,6.5,15.3
	c0,4.1,0.7,6.7,2.1,8.2c1.2,1.1,2.8,1.7,4.5,1.6c1.1,0.1,2.2-0.2,3.2-0.7v-6.5H12l-0.7-4.7h11.1v13.7c-2.9,1.7-6.2,2.6-9.5,2.6
	c-4.3,0-7.5-1.4-9.8-4.4c-2.1-2.7-3-5.7-3-10C0,9,2,4.7,6,2c2-1.4,4.5-2.1,6.9-2C16.3-0.1,19.5,1.1,22,3.3z"/>
<path id="jdf5b" style="fill:#01D856;" d="M24.9,8.8l4.9-1.3c0.5,0.9,0.8,2,0.9,3c0.8-1.1,1.9-2,3.1-2.7c0.6-0.2,1.2-0.3,1.8-0.3
	c0.7,0,1.4,0.1,2.1,0.5l-1.5,4.8c-0.5-0.3-1-0.4-1.6-0.4c-1.2,0-2.4,0.6-3.4,1.8v14.9h-5.5V15C25.7,12.2,25.3,10,24.9,8.8z"/>
<path id="jdf5c" style="fill:#01D856;" d="M55,26.8c-2.2,1.9-5,2.9-7.9,2.9c-6.1,0-10-4.3-10-10.9c0-3.8,0.8-6.3,2.6-8.4
	c1.7-1.9,4.1-2.9,6.6-2.8c2.4,0,4.7,0.8,6.1,2.2c1.9,2,2.8,4.8,2.8,9.2v1.3H43.1v0.2c0,3.3,1.6,5.1,4.4,5.1c2,0,3.9-0.8,5.4-2.1
	L55,26.8z M43.2,16.3h6.4V16c0-1.6-0.2-2.4-0.6-3.2c-0.5-0.8-1.5-1.3-2.4-1.2C44.4,11.6,43.2,13.3,43.2,16.3L43.2,16.3z"/>
<path id="jdf5d" style="fill:#01D856;" d="M75.6,26.8c-2.2,1.9-5,2.9-7.9,2.9c-6,0-10-4.3-10-10.9c0-3.8,0.8-6.3,2.6-8.4
	C62,8.5,64.4,7.5,67,7.6c2.4,0,4.7,0.8,6.1,2.2c1.9,2,2.8,4.8,2.8,9.2v1.3H63.7v0.2c0,3.3,1.6,5.1,4.4,5.1c2,0,3.9-0.8,5.4-2.1
	L75.6,26.8z M63.8,16.3h6.4V16c0-1.6-0.2-2.4-0.6-3.2C69,12,68,11.6,67,11.6C64.9,11.6,63.8,13.3,63.8,16.3L63.8,16.3z"/>
<path id="jdf5e" style="fill:#01D856;" d="M78.1,8.9L83,7.5c0.5,0.8,0.8,1.7,0.8,2.6c0.8-0.6,1.6-1.1,2.4-1.6
	C87.4,8,88.7,7.6,90,7.6c2.4,0,4.4,1.2,5.1,3c0.3,1,0.5,2,0.4,3v15.4h-5.4V15.4c0-2.4-0.4-3.1-1.9-3.1c-1.1,0-2.6,0.7-3.8,1.9v14.9
	h-5.5V13.8C78.9,12.1,78.6,10.5,78.1,8.9L78.1,8.9z"/>
<path id="jdf5f" style="fill:#01D856;" d="M97.5,8.4l5.5-0.6l1.7,8c0.5,2.4,1.2,6.6,1.2,6.6c0.3-2.5,0.9-4.9,1.5-7.3l2-7h5.2
	l1.7,6.9c0.9,3.9,1.6,7.5,1.6,7.5c0.1-0.9,0.6-4.2,1.1-6.9l1.6-7.5h5.7l-6,21h-5.1l-1.9-7.2c-0.4-1.7-0.9-3.7-1.2-5.1
	c-0.2-1-0.2-1.3-0.3-2.1c-0.1,0.9-0.3,1.8-0.5,2.7c-0.8,3.5-1.8,7.2-1.8,7.4l-1.1,4.3h-5.1L97.5,8.4z"/>
<path id="jdf5g" style="fill:#01D856;" d="M127.4,10.5c1.1-0.7,2.2-1.3,3.4-1.7c1.8-0.8,3.8-1.2,5.8-1.2c3.5,0,6,1.3,6.8,3.7
	c0.3,0.9,0.4,1.5,0.4,3.8l-0.1,7.1v0.4c0,2.3,0.4,3.1,2,4.3l-2.9,3.4c-1.3-0.5-2.3-1.4-3-2.6c-0.4,0.4-0.8,0.8-1.3,1.1
	c-1.3,0.8-2.8,1.2-4.2,1.1c-4.7,0-7.2-2.4-7.2-6.6c0-5,3.4-7.2,10.1-7.2c0.4,0,0.6,0,1.2,0v-0.9c0-2.3-0.4-3.1-2.5-3.1
	c-1.8,0-3.8,0.9-6.1,2.4L127.4,10.5z M138.2,19.9H138c-3.8,0-5.1,0.7-5.1,3.2c0,1.6,1,2.8,2.4,2.8c1.1-0.1,2.2-0.6,2.9-1.4
	L138.2,19.9z"/>
<path id="jdf5h" style="fill:#01D856;" d="M146.3,8.4l5.7-0.7l3.7,12.3c0.4,1.3,1.1,4.4,1.1,4.4s0.4-2.3,0.7-3.4
	c0.3-1.3,0.4-1.5,0.8-2.9l3.2-10h5.8l-7.7,21.4c-1.4,4.1-2.5,5.8-4,6.9c-1.5,1.1-3.3,1.7-5.1,1.9l-1.9-3.6c1.2-0.3,2.3-0.8,3.4-1.4
	c0.6-0.5,1.2-1.1,1.6-1.7c0.5-0.8,0.9-1.6,1.2-2.5h-1.4l-0.9-2.5c-0.4-1.3-1.1-3.4-1.1-3.5L146.3,8.4z"/>
<path id="jdf5i" style="fill:#3F88F7;" d="M269.5,28.1v-4.9h-1.8v-1h4.7v1h-1.8v4.9H269.5z"/>
<path id="jdf5j" style="fill:#3F88F7;" d="M273.2,28.1v-6h1.8l1.1,4.1l1.1-4.1h1.8v6h-1.1v-4.7l-1.2,4.7h-1.1l-1.2-4.7v4.7H273.2z"
	/>
<path id="jdf5k" style="fill:#3F88F7;" d="M184.6,28.4V16.7H177v11.8h-5.3V2h5.3v10.3h7.6V2h5.4v26.4H184.6z"/>
<path id="jdf5l" style="fill:#3F88F7;" d="M197.4,20.3v0.2c0,3,1.5,4.7,4.1,4.7c1.8,0,3.6-0.7,4.9-1.9l2,3c-2,1.8-4.7,2.7-7.4,2.7
	c-5.6,0-9.2-4-9.2-10.1c0-3.5,0.7-5.8,2.4-7.7c1.5-1.8,3.8-2.7,6.1-2.6c2.3,0,4.4,0.8,5.6,2c1.8,1.8,2.6,4.4,2.6,8.5v1.2L197.4,20.3
	z M203.3,16.4c0-1.4-0.1-2.2-0.6-2.9c-0.5-0.8-1.4-1.2-2.3-1.1c-1.9,0-3,1.5-3,4.2v0.1h5.9L203.3,16.4z"/>
<path id="jdf5m" style="fill:#3F88F7;" d="M223.9,29.4c-1.2-0.5-2.1-1.3-2.7-2.3c-0.4,0.4-0.8,0.7-1.2,1c-1.2,0.7-2.5,1.1-3.9,1.1
	c-4.3,0-6.7-2.2-6.7-6.1c0-4.6,3.1-6.7,9.3-6.7c0.4,0,0.8,0,1.1,0v-0.8c0-2.2-0.4-2.9-2.3-2.9c-1.6,0-3.5,0.8-5.6,2.2l-2.2-3.6
	c1-0.6,2-1.2,3.1-1.6c1.7-0.7,3.5-1.1,5.3-1.1c3.3,0,5.5,1.2,6.3,3.4c0.3,0.8,0.4,1.4,0.3,3.5l-0.1,6.5c0,2.1,0.1,3,1.8,4.3
	L223.9,29.4z M219.6,19.9c-3.5,0-4.8,0.7-4.8,3c0,1.5,1,2.5,2.3,2.5c1-0.1,2-0.5,2.7-1.3l0.1-4.2H219.6z"/>
<path id="jdf5n" style="fill:#3F88F7;" d="M233,28.9c-2.2,0-3.9-1-4.5-2.7c-0.4-1-0.5-1.6-0.5-4.4V7.4c0-2-0.1-3.9-0.3-5.8l5.2-1.2
	c0.2,1.7,0.3,3.4,0.3,5v15.2c0,3.3,0,3.8,0.3,4.3c0.2,0.4,0.6,0.6,1,0.6c0.2,0,0.4,0,0.6-0.1l0.9,3C235,28.7,234,28.9,233,28.9
	L233,28.9z"/>
<path id="jdf5o" style="fill:#3F88F7;" d="M243.7,28.9c-2.6,0-4.6-1.1-5.2-2.8c-0.3-0.8-0.4-1.2-0.4-3V12.5h-1.9V9h1.9
	c0-1.5,0-3.1,0.2-4.6l5.2-1.3c-0.2,1.8-0.3,3.9-0.3,5.9h4.6l-1.3,3.5h-3.3v9.8c0,2.5,0.5,3.1,2.2,3.1c0.6,0,1.2-0.2,1.8-0.4l0.6,3
	C246.6,28.6,245.1,28.9,243.7,28.9L243.7,28.9z"/>
<path id="jdf5p" style="fill:#3F88F7;" d="M260.7,28.4V15.4c0-1.9-0.6-2.7-2-2.7c-1.5,0.1-2.9,0.8-4,1.8v13.9h-5.2V6
	c0-1.5-0.1-3-0.4-4.4l5.2-1.2c0.3,1.6,0.4,3.2,0.3,4.8v3.9c0,0.6-0.1,1.4-0.1,1.6c1.5-1.3,3.5-2.1,5.5-2.1c2.5,0,4.5,1.1,5,2.8
	c0.4,1.2,0.6,2.4,0.5,3.6v13.6H260.7z"/>
</svg>
