<?xml version="1.0" encoding="UTF-8"?> <svg xmlns="http://www.w3.org/2000/svg" width="195" height="35" viewBox="0 0 195 35" fill="none"><g clip-path="url(#clip0_276_97)"><path d="M0 0.960764C0 0.630166 0.257835 0.331055 0.611876 0.331055H9.84775C13.723 0.331055 16.8862 3.50321 16.8862 7.43102C16.8862 10.4694 14.9159 12.9488 12.1067 14.102L16.5322 22.4889C16.7593 22.9179 16.5322 23.4492 15.9819 23.4492H12.5916C12.2991 23.4492 12.1375 23.2839 12.0759 23.1501L7.78122 14.3972H4.19847V22.8195C4.19847 23.1501 3.906 23.4492 3.5866 23.4492H0.611876C0.257835 23.4492 0 23.1501 0 22.8195V0.960764ZM9.4937 10.8669C11.2062 10.8669 12.6916 9.3477 12.6916 7.49793C12.6916 5.74655 11.2062 4.29428 9.4937 4.29428H4.22926V10.8669H9.4937Z" fill="white"></path><path d="M22.6174 0.331055H19.6119C19.2739 0.331055 19 0.611223 19 0.956828V22.8235C19 23.1691 19.2739 23.4492 19.6119 23.4492H22.6174C22.9553 23.4492 23.2293 23.1691 23.2293 22.8235V0.956828C23.2293 0.611223 22.9553 0.331055 22.6174 0.331055Z" fill="white"></path><path d="M37.1379 0C40.0433 0 42.8218 1.15315 45.0153 3.07377C45.2732 3.33746 45.3039 3.73496 45.05 3.99865L43.0489 6.1436C42.791 6.40729 42.4985 6.40729 42.2099 6.1436C40.8207 4.88811 39.1082 4.22692 37.3342 4.22692C33.2973 4.22692 30.0994 7.76116 30.0994 11.8897C30.0994 16.0182 33.2973 19.4541 37.3649 19.4541C39.1736 19.4541 40.5629 18.8952 41.2055 18.6276V15.8214H38.6233C38.2693 15.8214 38.0115 15.5577 38.0115 15.2271V12.6178C38.0115 12.2518 38.2693 11.9881 38.6233 11.9881H44.8229C45.1462 11.9881 45.404 12.2872 45.404 12.6178V21.0716C45.404 21.3353 45.2732 21.5006 45.1462 21.599C45.1462 21.599 41.8212 23.744 37.1379 23.744C30.7113 23.744 25.5469 18.5252 25.5469 11.9212C25.5469 5.3171 30.7113 0 37.1379 0Z" fill="white"></path><path d="M48.207 0.960734C48.207 0.630137 48.4957 0.334961 48.8189 0.334961H51.8206C52.1746 0.334961 52.4363 0.634073 52.4363 0.960734V9.71369H62.9652V0.960734C62.9652 0.630137 63.223 0.334961 63.5809 0.334961H66.5518C66.875 0.334961 67.1637 0.634073 67.1637 0.960734V22.8234C67.1637 23.154 66.875 23.4492 66.5518 23.4492H63.5809C63.2269 23.4492 62.9652 23.154 62.9652 22.8234V13.7084H52.4363V22.8234C52.4363 23.154 52.1785 23.4492 51.8206 23.4492H48.8189C48.4957 23.4492 48.207 23.154 48.207 22.8234V0.960734Z" fill="white"></path><path d="M74.4515 4.29426H69.5103C69.1563 4.29426 68.8984 3.99514 68.8984 3.66455V0.960734C68.8984 0.630137 69.1563 0.334961 69.5103 0.334961H83.622C83.976 0.334961 84.2377 0.634073 84.2377 0.960734V3.66848C84.2377 3.99908 83.9798 4.29819 83.622 4.29819H78.6808V22.8234C78.6808 23.154 78.3883 23.4531 78.065 23.4531H75.0634C74.7401 23.4531 74.4477 23.154 74.4477 22.8234V4.29426H74.4515Z" fill="white"></path><path d="M95.7267 0C98.9862 0 101.345 1.0587 103.543 3.07377C103.831 3.33746 103.831 3.73496 103.573 3.99865L101.603 6.08063C101.376 6.34432 101.053 6.34432 100.795 6.08063C99.4365 4.86056 97.6316 4.13246 95.8191 4.13246C91.6861 4.13246 88.619 7.6667 88.619 11.8267C88.619 15.9867 91.7207 19.4541 95.8537 19.4541C97.7933 19.4541 99.4365 18.6945 100.795 17.5728C101.053 17.3406 101.411 17.376 101.603 17.5728L103.604 19.6863C103.862 19.9185 103.797 20.3475 103.573 20.5757C101.376 22.7561 98.6014 23.7794 95.7267 23.7794C89.2693 23.7794 84.0703 18.5292 84.0703 11.9212C84.0703 5.31317 89.2693 0 95.7267 0Z" fill="#51AF46"></path><path d="M105.762 0.960734C105.762 0.630137 106.02 0.334961 106.374 0.334961H115.609C119.485 0.334961 122.648 3.50712 122.648 7.43493C122.648 10.4733 120.678 12.9528 117.868 14.1059L122.294 22.4928C122.521 22.9218 122.294 23.4531 121.744 23.4531H118.353C118.061 23.4531 117.899 23.2878 117.838 23.154L113.543 14.4011H109.956V22.8234C109.956 23.154 109.668 23.4531 109.344 23.4531H106.374C106.02 23.4531 105.762 23.154 105.762 22.8234V0.960734ZM115.255 10.8668C116.968 10.8668 118.453 9.34767 118.453 7.4979C118.453 5.74652 116.968 4.29426 115.255 4.29426H109.991V10.8668H115.255Z" fill="#51AF46"></path><path d="M146.667 1.12557C146.536 0.661165 146.794 0.330568 147.248 0.330568H150.219C150.477 0.330568 150.734 0.562773 150.8 0.794978L154.159 13.9716H154.286L159.424 0.365989C159.489 0.169205 159.651 0.00390625 159.974 0.00390625H160.555C160.879 0.00390625 161.04 0.169205 161.106 0.365989L166.274 13.9756H166.401L169.695 0.798914C169.76 0.566708 170.018 0.334503 170.276 0.334503H173.247C173.697 0.334503 173.959 0.6651 173.828 1.12951L167.725 23.3228C167.659 23.5865 167.401 23.7872 167.144 23.7872H166.628C166.335 23.7872 166.143 23.6219 166.078 23.4251L160.297 8.46168H160.136L154.417 23.4251C154.321 23.6219 154.19 23.7872 153.867 23.7872H153.351C153.093 23.7872 152.836 23.5904 152.77 23.3228L146.667 1.12951V1.12557Z" fill="#51AF46"></path><path d="M175.43 0.960734C175.43 0.630137 175.688 0.334961 176.011 0.334961H183.665C189.899 0.334961 194.998 5.51825 194.998 11.8626C194.998 18.2069 189.895 23.4531 183.665 23.4531H176.011C175.688 23.4531 175.43 23.158 175.43 22.8274V0.960734ZM183.276 19.423C187.475 19.423 190.542 16.3847 190.542 11.8626C190.542 7.34047 187.475 4.33361 183.276 4.33361H179.594V19.4269H183.276V19.423Z" fill="#51AF46"></path><path d="M131.331 18.0844C129.657 16.7109 128.691 14.4597 128.691 11.9212C128.691 7.76116 131.28 4.29383 135.348 4.29383C139.416 4.29383 142.036 7.76116 142.036 11.9212C142.036 14.4715 141.051 16.7266 139.354 18.1002C140.974 18.541 142.367 19.2376 143.399 20.1074C145.196 17.9861 146.231 15.113 146.231 11.9212C146.231 5.3171 141.802 0 135.344 0C128.887 0 124.488 5.3171 124.488 11.9212C124.488 15.0933 125.504 17.9467 127.271 20.0641C128.313 19.2022 129.707 18.5174 131.327 18.0844H131.331Z" fill="#51AF46"></path><path d="M74.5938 28.7064C74.5938 28.6159 74.6669 28.5332 74.7631 28.5332H78.3882C78.4844 28.5332 78.5575 28.6159 78.5575 28.7064V29.4542C78.5575 29.5447 78.4844 29.6273 78.3882 29.6273H75.7521V31.1229H77.9495C78.038 31.1229 78.1188 31.2055 78.1188 31.296V32.0517C78.1188 32.154 78.038 32.2249 77.9495 32.2249H75.7521V33.8188H78.3882C78.4844 33.8188 78.5575 33.9015 78.5575 33.992V34.7398C78.5575 34.8303 78.4844 34.9129 78.3882 34.9129H74.7631C74.6669 34.9129 74.5938 34.8303 74.5938 34.7398V28.7103V28.7064Z" fill="white"></path><path d="M78.9788 28.7693C78.9249 28.6513 78.998 28.5332 79.1289 28.5332H80.0371C80.1179 28.5332 80.1718 28.5883 80.1872 28.6355L81.9035 32.5515H81.9497L83.6699 28.6355C83.6853 28.5883 83.7391 28.5332 83.8199 28.5332H84.7281C84.8628 28.5332 84.9321 28.6513 84.8782 28.7693L82.119 34.9011C82.0921 34.9523 82.0497 34.9995 81.9689 34.9995H81.8804C81.7996 34.9995 81.7573 34.9523 81.7303 34.9011L78.9788 28.7693Z" fill="white"></path><path d="M85.6484 28.7064C85.6484 28.6159 85.7177 28.5332 85.8178 28.5332H89.4428C89.539 28.5332 89.6122 28.6159 89.6122 28.7064V29.4542C89.6122 29.5447 89.5429 29.6273 89.4428 29.6273H86.8068V31.1229H89.0041C89.0926 31.1229 89.1735 31.2055 89.1735 31.296V32.0517C89.1735 32.154 89.0926 32.2249 89.0041 32.2249H86.8068V33.8188H89.4428C89.539 33.8188 89.6122 33.9015 89.6122 33.992V34.7398C89.6122 34.8303 89.5429 34.9129 89.4428 34.9129H85.8178C85.7177 34.9129 85.6484 34.8303 85.6484 34.7398V28.7103V28.7064Z" fill="white"></path><path d="M90.7812 28.7064C90.7812 28.6159 90.8543 28.5332 90.9505 28.5332H93.4981C94.5679 28.5332 95.4376 29.4069 95.4376 30.4932C95.4376 31.3315 94.895 32.0163 94.1177 32.3351L95.3376 34.6493C95.3991 34.7673 95.3376 34.9129 95.1875 34.9129H94.2523C94.1715 34.9129 94.1292 34.8696 94.11 34.8303L92.9247 32.4177H91.9357V34.7398C91.9357 34.8303 91.8549 34.9129 91.7664 34.9129H90.9467C90.8505 34.9129 90.7773 34.8303 90.7773 34.7398V28.7103L90.7812 28.7064ZM93.398 31.4377C93.8675 31.4377 94.2793 31.0206 94.2793 30.5089C94.2793 30.0248 93.8675 29.6273 93.398 29.6273H91.9434V31.4377H93.398Z" fill="white"></path><path d="M97.8498 31.8392L95.8217 28.7969C95.7486 28.6788 95.8217 28.5332 95.9641 28.5332H96.8723C96.9454 28.5332 96.9878 28.5804 97.0147 28.6159L98.4386 30.7096L99.8624 28.6159C99.8894 28.5804 99.9355 28.5332 100.005 28.5332H100.921C101.063 28.5332 101.136 28.6788 101.063 28.7969L99.0081 31.8313V34.7358C99.0081 34.8264 98.9273 34.909 98.8388 34.909H98.0191C97.9229 34.909 97.8498 34.8264 97.8498 34.7358V31.8392Z" fill="white"></path><path d="M104.409 28.4434C106.191 28.4434 107.614 29.9074 107.614 31.7336C107.614 33.5597 106.191 35.0002 104.409 35.0002C102.627 35.0002 101.211 33.5519 101.211 31.7336C101.211 29.9153 102.627 28.4434 104.409 28.4434ZM104.409 33.8156C105.533 33.8156 106.456 32.8789 106.456 31.7336C106.456 30.5883 105.529 29.628 104.409 29.628C103.289 29.628 102.369 30.5844 102.369 31.7336C102.369 32.8828 103.285 33.8156 104.409 33.8156Z" fill="white"></path><path d="M108.758 28.6087C108.758 28.5181 108.839 28.4434 108.927 28.4434H109.062C109.123 28.4434 109.17 28.4591 109.212 28.5063L112.845 32.4696H112.864V28.7071C112.864 28.6165 112.933 28.5339 113.033 28.5339H113.849C113.938 28.5339 114.018 28.6165 114.018 28.7071V34.8388C114.018 34.9294 113.938 35.0002 113.849 35.0002H113.726C113.664 35.0002 113.618 34.9805 113.576 34.9372L109.924 30.8205H109.908V34.7365C109.908 34.827 109.835 34.9097 109.739 34.9097H108.927C108.839 34.9097 108.758 34.827 108.758 34.7365V28.6087Z" fill="white"></path><path d="M115.539 28.7064C115.539 28.6159 115.608 28.5332 115.708 28.5332H119.333C119.43 28.5332 119.503 28.6159 119.503 28.7064V29.4542C119.503 29.5447 119.43 29.6273 119.333 29.6273H116.697V31.1229H118.899C118.987 31.1229 119.068 31.2055 119.068 31.296V32.0517C119.068 32.154 118.987 32.2249 118.899 32.2249H116.697V33.8188H119.333C119.43 33.8188 119.503 33.9015 119.503 33.992V34.7398C119.503 34.8303 119.43 34.9129 119.333 34.9129H115.708C115.608 34.9129 115.539 34.8303 115.539 34.7398V28.7103V28.7064Z" fill="white"></path><path d="M125.643 28.4434C127.421 28.4434 128.849 29.9074 128.849 31.7336C128.849 33.5597 127.425 35.0002 125.643 35.0002C123.861 35.0002 122.445 33.5519 122.445 31.7336C122.445 29.9153 123.861 28.4434 125.643 28.4434ZM125.643 33.8156C126.763 33.8156 127.691 32.8789 127.691 31.7336C127.691 30.5883 126.763 29.628 125.643 29.628C124.523 29.628 123.604 30.5844 123.604 31.7336C123.604 32.8828 124.52 33.8156 125.643 33.8156Z" fill="white"></path><path d="M129.996 28.6087C129.996 28.5181 130.077 28.4434 130.165 28.4434H130.3C130.362 28.4434 130.408 28.4591 130.45 28.5063L134.083 32.4696H134.098V28.7071C134.098 28.6165 134.171 28.5339 134.268 28.5339H135.087C135.176 28.5339 135.257 28.6165 135.257 28.7071V34.8388C135.257 34.9294 135.176 35.0002 135.087 35.0002H134.964C134.903 35.0002 134.856 34.9805 134.814 34.9372L131.162 30.8205H131.147V34.7365C131.147 34.827 131.074 34.9097 130.977 34.9097H130.165C130.077 34.9097 129.996 34.827 129.996 34.7365V28.6087Z" fill="white"></path><path d="M138.651 34.2917C138.563 34.2209 138.528 34.1619 138.605 34.0202L138.924 33.4574C138.998 33.3275 139.148 33.3275 139.228 33.3944C139.594 33.6778 139.994 33.9572 140.572 33.9572C141.037 33.9572 141.384 33.6463 141.384 33.2567C141.384 32.7923 141.003 32.4735 140.252 32.1625C139.413 31.8162 138.578 31.2691 138.578 30.1947C138.578 29.384 139.167 28.4473 140.583 28.4473C141.491 28.4473 142.184 28.9195 142.365 29.0573C142.453 29.1085 142.48 29.2659 142.419 29.3564L142.08 29.8799C142.011 29.9861 141.876 30.0609 141.768 29.9861C141.387 29.7421 141.018 29.4863 140.533 29.4863C140.048 29.4863 139.748 29.7775 139.748 30.1239C139.748 30.5529 140.079 30.8441 140.799 31.1432C141.661 31.4974 142.661 32.0287 142.661 33.2016C142.661 34.1422 141.868 35.0041 140.61 35.0041C139.49 35.0041 138.909 34.52 138.651 34.2957" fill="white"></path><path d="M143.935 28.5332H144.762C144.855 28.5332 144.932 28.6119 144.932 28.7064V34.7358C144.932 34.8303 144.855 34.909 144.762 34.909H143.935C143.843 34.909 143.766 34.8303 143.766 34.7358V28.7064C143.766 28.6119 143.843 28.5332 143.935 28.5332Z" fill="white"></path><path d="M147.453 29.6273H146.091C145.991 29.6273 145.922 29.5447 145.922 29.4542V28.7064C145.922 28.6159 145.991 28.5332 146.091 28.5332H149.982C150.082 28.5332 150.151 28.6159 150.151 28.7064V29.4542C150.151 29.5447 150.082 29.6273 149.982 29.6273H148.62V34.7398C148.62 34.8303 148.539 34.9129 148.45 34.9129H147.623C147.534 34.9129 147.453 34.8303 147.453 34.7398V29.6273Z" fill="white"></path><path d="M151.141 28.7064C151.141 28.6159 151.214 28.5332 151.31 28.5332H154.935C155.035 28.5332 155.104 28.6159 155.104 28.7064V29.4542C155.104 29.5447 155.035 29.6273 154.935 29.6273H152.299V31.1229H154.496C154.585 31.1229 154.666 31.2055 154.666 31.296V32.0517C154.666 32.154 154.585 32.2249 154.496 32.2249H152.299V33.8188H154.935C155.035 33.8188 155.104 33.9015 155.104 33.992V34.7398C155.104 34.8303 155.035 34.9129 154.935 34.9129H151.31C151.21 34.9129 151.141 34.8303 151.141 34.7398V28.7103V28.7064Z" fill="white"></path><path d="M158.576 28.5332H159.403C159.495 28.5332 159.572 28.6119 159.572 28.7064V34.7358C159.572 34.8303 159.495 34.909 159.403 34.909H158.576C158.483 34.909 158.406 34.8303 158.406 34.7358V28.7064C158.406 28.6119 158.483 28.5332 158.576 28.5332Z" fill="white"></path><path d="M160.831 34.2916C160.743 34.2207 160.708 34.1617 160.785 34.02L161.104 33.4572C161.174 33.3273 161.328 33.3273 161.408 33.3942C161.774 33.6776 162.174 33.957 162.751 33.957C163.213 33.957 163.563 33.6461 163.563 33.2565C163.563 32.7921 163.179 32.4733 162.432 32.1624C161.593 31.816 160.758 31.269 160.758 30.1945C160.758 29.3838 161.347 28.4471 162.763 28.4471C163.671 28.4471 164.368 28.9194 164.545 29.0571C164.633 29.1083 164.66 29.2657 164.599 29.3562L164.26 29.8797C164.187 29.9859 164.052 30.0607 163.948 29.9859C163.563 29.7419 163.202 29.4861 162.709 29.4861C162.217 29.4861 161.928 29.7774 161.928 30.1237C161.928 30.5527 162.255 30.8439 162.978 31.143C163.844 31.4972 164.841 32.0286 164.841 33.2014C164.841 34.142 164.048 35.0039 162.794 35.0039C161.67 35.0039 161.093 34.5198 160.835 34.2955" fill="white"></path><path d="M168.082 28.7064C168.082 28.6159 168.155 28.5332 168.251 28.5332H170.799C171.865 28.5332 172.738 29.4069 172.738 30.4932C172.738 31.3315 172.196 32.0163 171.418 32.3351L172.638 34.6493C172.7 34.7673 172.638 34.9129 172.488 34.9129H171.553C171.472 34.9129 171.43 34.8696 171.411 34.8303L170.225 32.4177H169.236V34.7398C169.236 34.8303 169.156 34.9129 169.067 34.9129H168.247C168.151 34.9129 168.078 34.8303 168.078 34.7398V28.7103L168.082 28.7064ZM170.699 31.4377C171.172 31.4377 171.58 31.0206 171.58 30.5089C171.58 30.0248 171.168 29.6273 170.699 29.6273H169.248V31.4377H170.699Z" fill="white"></path><path d="M174.126 28.5332H174.954C175.046 28.5332 175.123 28.6119 175.123 28.7064V34.7358C175.123 34.8303 175.046 34.909 174.954 34.909H174.126C174.034 34.909 173.957 34.8303 173.957 34.7358V28.7064C173.957 28.6119 174.034 28.5332 174.126 28.5332Z" fill="white"></path><path d="M179.471 28.4434C180.272 28.4434 181.038 28.7622 181.642 29.2896C181.711 29.3604 181.723 29.4706 181.649 29.5414L181.099 30.1318C181.026 30.2066 180.949 30.2066 180.868 30.1318C180.483 29.7855 180.014 29.6044 179.525 29.6044C178.413 29.6044 177.528 30.5765 177.528 31.7179C177.528 32.8592 178.409 33.8038 179.533 33.8038C180.033 33.8038 180.414 33.6464 180.595 33.5755V32.8002H179.883C179.783 32.8002 179.714 32.7254 179.714 32.6349V31.9147C179.714 31.8123 179.783 31.7415 179.883 31.7415H181.592C181.68 31.7415 181.75 31.8241 181.75 31.9147V34.2485C181.75 34.3194 181.715 34.3666 181.68 34.3941C181.68 34.3941 180.764 34.9845 179.471 34.9845C177.697 34.9845 176.273 33.548 176.273 31.7257C176.273 29.9035 177.701 28.4395 179.471 28.4395" fill="white"></path><path d="M183.035 28.7064C183.035 28.6159 183.116 28.5332 183.204 28.5332H184.032C184.128 28.5332 184.201 28.6159 184.201 28.7064V31.1229H187.103V28.7064C187.103 28.6159 187.172 28.5332 187.272 28.5332H188.092C188.18 28.5332 188.261 28.6159 188.261 28.7064V34.7358C188.261 34.8264 188.18 34.909 188.092 34.909H187.272C187.172 34.909 187.103 34.8264 187.103 34.7358V32.2209H184.201V34.7358C184.201 34.8264 184.128 34.909 184.032 34.909H183.204C183.116 34.909 183.035 34.8264 183.035 34.7358V28.7064Z" fill="white"></path><path d="M190.786 29.6273H189.423C189.323 29.6273 189.254 29.5447 189.254 29.4542V28.7064C189.254 28.6159 189.323 28.5332 189.423 28.5332H193.314C193.41 28.5332 193.483 28.6159 193.483 28.7064V29.4542C193.483 29.5447 193.41 29.6273 193.314 29.6273H191.952V34.7398C191.952 34.8303 191.871 34.9129 191.782 34.9129H190.955C190.866 34.9129 190.786 34.8303 190.786 34.7398V29.6273Z" fill="white"></path></g><defs><clipPath id="clip0_276_97"><rect width="195" height="35" fill="white"></rect></clipPath></defs></svg> 