<svg class="sb_logo w-32 h-8" version="1.1" xmlns="http://www.w3.org/2000/svg" x="0" y="0" viewBox="0 0 149.7 26.1" xml:space="preserve">
  <style>
    .sb_logo_slalom { fill: rgba(9,9,28,var(--tw-bg-opacity)); }
    .sb_logo_build { fill: #1be1f2; }
  </style>
  <g>
    <path class="sb_logo_slalom" d="M18.1 21.5h-2.3c-.9 0-1.5-.7-1.6-1.5V1.5h3.9v20z"/>
    <path class="sb_logo_slalom" d="M22.6 14.3c-.1 2 1.4 3.8 3.4 3.9 2 .1 3.8-1.4 3.9-3.4v-.5c.1-2-1.4-3.8-3.4-3.9-2-.1-3.8 1.4-3.9 3.4v.5m11.1 7.2h-2.2c-.9 0-1.5-.7-1.6-1.5-1 1.3-2.6 2-4.3 2-3.9 0-6.9-3.2-6.9-7.5s3-7.5 6.9-7.5c1.7-.1 3.2.7 4.3 2V7.2h3.8v14.3z"/>
    <path class="sb_logo_slalom" d="M38.5 21.5h-2.3c-.9 0-1.5-.7-1.6-1.5V1.5h3.9v20z"/>
    <path class="sb_logo_slalom" d="M43.1 14.3c.1 2.1 1.8 3.7 3.9 3.7 2.1-.1 3.7-1.8 3.7-3.9-.1-2.1-1.8-3.7-3.8-3.7-2.1 0-3.8 1.6-3.8 3.7-.1 0-.1.1 0 .2m11.5 0c.1 4.3-3.2 7.8-7.5 7.9-4.3.1-7.8-3.2-7.9-7.5s3.2-7.8 7.5-7.9h.2c4.1-.2 7.6 3 7.7 7.1v.4"/>
    <path class="sb_logo_slalom" d="M78.3 12.3v9.1H76c-.9 0-1.5-.7-1.6-1.5v-6.3c0-2.1-1-3.2-2.8-3.2-1.6-.1-3 1.2-3 2.8v8.2h-2.3c-.9 0-1.5-.7-1.6-1.5v-6.3c0-2.1-1-3.2-2.8-3.2-1.6-.1-3 1.2-3 2.8v8.2h-2.3c-.9 0-1.5-.7-1.6-1.5V7.1h3.8v1.7c.9-1.4 2.5-2.2 4.2-2.1 1.9-.1 3.7.9 4.7 2.4 1.8-2.6 5.4-3.2 8-1.4 1.6 1.2 2.6 2.8 2.6 4.6"/>
    <path class="sb_logo_slalom" d="M12.5 10c-.3.8-1.2 1.1-2 .8-1.3-.5-2.6-.8-4-.9-1.5 0-2.1.5-2.2 1.3 0 .8.8 1 2.1 1.3l1.7.2c3.1.4 5.4 1.8 5.4 4.5 0 3-2.5 4.7-7.3 4.6-2.2-.1-4.4-.7-6.3-1.8l1.3-3c1.5.9 3.3 1.5 5.1 1.6 2.1 0 3.2-.3 3.2-1.4 0-1-1.4-1.1-3.2-1.4l-.8-.1C1.3 15 .3 13.4.3 11.1c0-3 2.9-4.5 6.2-4.5 2.3 0 4.6.6 6.6 1.7l-.6 1.7z"/>
  </g>
  <g>
    <path class="sb_logo_build" d="M78 24.6h15.7v1.5H78v-1.5z"/>
    <g transform="translate(15.779)">
      <path class="sb_logo_build" d="M78 .2h3.8v8.2h.2c2.2-2.6 7.1-2 9.4 1.1 2.4 3.4 1.9 8.2-1.3 11-2.2 1.7-6.1 2.1-8.2-.3-.1-.1-.2-.2-.2-.3v.1c0 .8-.6 1.4-1.4 1.4H78V.2zm11 14.1c.1-2-1.4-3.8-3.4-3.9-2-.1-3.8 1.4-3.9 3.4v.5c-.2 2 1.4 3.8 3.4 3.9 2 .2 3.8-1.4 3.9-3.4v-.5z"/>
      <path class="sb_logo_build" d="M133.9 21.5h-2.2c-.8 0-1.5-.7-1.5-1.5-.1 0-.2.1-.2.1-2.6 2.4-6.7 2.2-9.1-.4-.7-.8-1.3-1.8-1.5-2.9-.9-3.1-.4-6.1 2.1-8.4 1.8-1.7 4.5-2.2 6.8-1.2.6.3 1.2.7 1.8 1.2V.3h3.8v21.2zM123 14.2c-.1 1.6.8 3.1 2.2 3.7 1.6.7 3.4.2 4.4-1.2 1-1.6.9-3.7-.3-5.2-1-1.1-2.6-1.5-4-.9s-2.4 2.1-2.3 3.6z"/>
      <path class="sb_logo_build" d="M103.8 7.2h3.8c0 3.3.1 6.6-.2 9.8-.2 2.4-1.9 3.9-4.2 4.5-1.7.5-3.6.4-5.2-.2-2.2-.7-3.7-2.7-3.8-5-.1-3 0-5.9-.1-8.9 0-.1 0-.1.1-.2H98v7.7c0 .4 0 .9.2 1.3.3 1.3 1.6 2.1 2.9 2 1.4.1 2.5-.9 2.7-2.3.1-.5.1-1 .1-1.5V7.9c-.1-.2-.1-.4-.1-.7z"/>
      <path class="sb_logo_build" d="M114 .3h3.8v21.2h-2.1c-.9 0-1.7-.8-1.7-1.7V.3z"/>
      <path class="sb_logo_build" d="M112.5 21.5h-2.1c-.9 0-1.7-.8-1.7-1.7V7.2h3.8v14.3z"/>
      <path class="sb_logo_build" d="M113.1 2.5c.1 1.3-.9 2.4-2.2 2.5h-.3c-1.3.1-2.4-1-2.5-2.3v-.1c0-1.4 1-2.5 2.4-2.5h.1c1.3 0 2.4 1 2.5 2.3v.1z"/>
    </g>
  </g>
</svg>